<svg width="31" height="31" viewBox="0 0 31 31" fill="none" xmlns="http://www.w3.org/2000/svg">
<path d="M16.9091 1.40909C16.9091 1.03538 16.7606 0.676969 16.4964 0.412713C16.2321 0.148458 15.8737 0 15.5 0C15.1263 0 14.7679 0.148458 14.5036 0.412713C14.2394 0.676969 14.0909 1.03538 14.0909 1.40909V14.0909H1.40909C1.03538 14.0909 0.676969 14.2394 0.412713 14.5036C0.148458 14.7679 0 15.1263 0 15.5C0 15.8737 0.148458 16.2321 0.412713 16.4964C0.676969 16.7606 1.03538 16.9091 1.40909 16.9091H14.0909V29.5909C14.0909 29.9646 14.2394 30.323 14.5036 30.5873C14.7679 30.8515 15.1263 31 15.5 31C15.8737 31 16.2321 30.8515 16.4964 30.5873C16.7606 30.323 16.9091 29.9646 16.9091 29.5909V16.9091H29.5909C29.9646 16.9091 30.323 16.7606 30.5873 16.4964C30.8515 16.2321 31 15.8737 31 15.5C31 15.1263 30.8515 14.7679 30.5873 14.5036C30.323 14.2394 29.9646 14.0909 29.5909 14.0909H16.9091V1.40909Z" fill="#40A0D0"/>
</svg>
