<svg width="23" height="24" viewBox="0 0 23 24" fill="none" xmlns="http://www.w3.org/2000/svg">
<g clip-path="url(#clip0_57_6062)">
<path d="M21.0833 2.65624H17.9688V1.21874C17.9689 1.02812 17.8933 0.845249 17.7586 0.710368C17.6239 0.575486 17.4411 0.499639 17.2505 0.499512C17.0599 0.499385 16.877 0.574988 16.7421 0.70969C16.6072 0.844392 16.5314 1.02716 16.5312 1.21778V2.65624H12.2188V1.21874C12.2188 1.12435 12.2003 1.03088 12.1642 0.943651C12.1282 0.856424 12.0753 0.777154 12.0086 0.710368C11.9419 0.643581 11.8627 0.590586 11.7755 0.554407C11.6883 0.518228 11.5949 0.499575 11.5005 0.499512C11.3099 0.499385 11.127 0.574988 10.9921 0.70969C10.8572 0.844392 10.7814 1.02716 10.7812 1.21778V2.65624H6.46875V1.21874C6.46881 1.12435 6.45028 1.03088 6.41422 0.943651C6.37816 0.856424 6.32527 0.777154 6.25857 0.710368C6.19187 0.643581 6.11268 0.590586 6.0255 0.554407C5.93832 0.518228 5.84487 0.499575 5.75048 0.499512C5.55985 0.499385 5.37699 0.574988 5.24211 0.70969C5.10722 0.844392 5.03138 1.02716 5.03125 1.21778V2.65624H1.91667C1.4085 2.65624 0.921135 2.85804 0.561717 3.21728C0.2023 3.57652 0.000254083 4.06378 0 4.57195V21.5824C0 22.0907 0.201934 22.5782 0.561379 22.9377C0.920823 23.2971 1.40833 23.499 1.91667 23.499H21.0833C21.5917 23.499 22.0792 23.2971 22.4386 22.9377C22.7981 22.5782 23 22.0907 23 21.5824V4.57195C22.9997 4.06378 22.7977 3.57652 22.4383 3.21728C22.0789 2.85804 21.5915 2.65624 21.0833 2.65624ZM21.5625 21.5833C21.5625 21.7102 21.5121 21.832 21.4225 21.9218C21.3328 22.0116 21.2112 22.0622 21.0843 22.0625H1.91667C1.78958 22.0625 1.66771 22.012 1.57784 21.9221C1.48798 21.8323 1.4375 21.7104 1.4375 21.5833V4.57291C1.43775 4.44599 1.48835 4.32436 1.57818 4.2347C1.66802 4.14505 1.78975 4.0947 1.91667 4.0947H5.03125V5.5322C5.03112 5.72282 5.10673 5.90569 5.24143 6.04057C5.37613 6.17545 5.5589 6.2513 5.74952 6.25143C5.94015 6.25156 6.12301 6.17595 6.25789 6.04125C6.39278 5.90655 6.46862 5.72378 6.46875 5.53316V4.0947H10.7812V5.5322C10.7811 5.72282 10.8567 5.90569 10.9914 6.04057C11.1261 6.17545 11.3089 6.2513 11.4995 6.25143C11.6901 6.25156 11.873 6.17595 12.0079 6.04125C12.1428 5.90655 12.2186 5.72378 12.2188 5.53316V4.0947H16.5312V5.5322C16.5311 5.72282 16.6067 5.90569 16.7414 6.04057C16.8761 6.17545 17.0589 6.2513 17.2495 6.25143C17.4401 6.25156 17.623 6.17595 17.7579 6.04125C17.8928 5.90655 17.9686 5.72378 17.9688 5.53316V4.0947H21.0833C21.2101 4.09495 21.3316 4.14542 21.4212 4.23504C21.5108 4.32467 21.5613 4.44616 21.5615 4.57291L21.5625 21.5833Z" fill="#848484"/>
<path d="M5.03125 9.125H7.90625V11.2812H5.03125V9.125ZM5.03125 12.7188H7.90625V14.875H5.03125V12.7188ZM5.03125 16.3125H7.90625V18.4688H5.03125V16.3125ZM10.0625 16.3125H12.9375V18.4688H10.0625V16.3125ZM10.0625 12.7188H12.9375V14.875H10.0625V12.7188ZM10.0625 9.125H12.9375V11.2812H10.0625V9.125ZM15.0938 16.3125H17.9688V18.4688H15.0938V16.3125ZM15.0938 12.7188H17.9688V14.875H15.0938V12.7188ZM15.0938 9.125H17.9688V11.2812H15.0938V9.125Z" fill="#848484"/>
</g>
<defs>
<clipPath id="clip0_57_6062">
<rect width="23" height="23" fill="white" transform="translate(0 0.5)"/>
</clipPath>
</defs>
</svg>
