<svg width="22" height="22" viewBox="0 0 22 22" fill="none" xmlns="http://www.w3.org/2000/svg">
<path d="M19.7567 0.67818L11.0008 9.43502L2.24488 0.67818C2.03429 0.485449 1.75746 0.381408 1.47207 0.387732C1.18668 0.394056 0.91474 0.510258 0.71289 0.712129C0.51104 0.914001 0.394851 1.18597 0.388527 1.47139C0.382204 1.75681 0.486233 2.03367 0.678945 2.24428L9.43041 11.0011L0.676724 19.7557C0.569779 19.8577 0.484288 19.98 0.425276 20.1154C0.366264 20.2508 0.334922 20.3967 0.333093 20.5445C0.331263 20.6922 0.358983 20.8388 0.414623 20.9757C0.470263 21.1125 0.552699 21.2369 0.657087 21.3415C0.761474 21.446 0.885707 21.5286 1.02248 21.5845C1.15926 21.6403 1.30581 21.6682 1.45353 21.6666C1.60126 21.665 1.74716 21.6339 1.88268 21.575C2.0182 21.5162 2.14059 21.4309 2.24266 21.3241L11.0008 12.5694L19.7567 21.3263C19.9673 21.519 20.2441 21.6231 20.5295 21.6167C20.8149 21.6104 21.0868 21.4942 21.2887 21.2923C21.4905 21.0905 21.6067 20.8185 21.613 20.5331C21.6194 20.2477 21.5153 19.9708 21.3226 19.7602L12.5667 11.0033L21.3226 2.24428C21.4296 2.14235 21.5151 2.02007 21.5741 1.88462C21.6331 1.74917 21.6644 1.6033 21.6663 1.45556C21.6681 1.30782 21.6404 1.16121 21.5847 1.02435C21.5291 0.887478 21.4467 0.763115 21.3423 0.658568C21.2379 0.554021 21.1136 0.471399 20.9769 0.41556C20.8401 0.35972 20.6935 0.33179 20.5458 0.33341C20.3981 0.33503 20.2522 0.366169 20.1167 0.424995C19.9812 0.483821 19.8588 0.569148 19.7567 0.675959V0.67818Z" fill="black"/>
</svg>
