<svg width="13" height="13" viewBox="0 0 13 13" fill="none" xmlns="http://www.w3.org/2000/svg">
<path d="M6.5 2.375V1M6.5 2.375C6.13533 2.375 5.78559 2.51987 5.52773 2.77773C5.26987 3.03559 5.125 3.38533 5.125 3.75C5.125 4.11467 5.26987 4.46441 5.52773 4.72227C5.78559 4.98013 6.13533 5.125 6.5 5.125M6.5 2.375C6.86467 2.375 7.21441 2.51987 7.47227 2.77773C7.73013 3.03559 7.875 3.38533 7.875 3.75C7.875 4.11467 7.73013 4.46441 7.47227 4.72227C7.21441 4.98013 6.86467 5.125 6.5 5.125M2.375 10.625C2.73967 10.625 3.08941 10.4801 3.34727 10.2223C3.60513 9.96441 3.75 9.61467 3.75 9.25C3.75 8.88533 3.60513 8.53559 3.34727 8.27773C3.08941 8.01987 2.73967 7.875 2.375 7.875M2.375 10.625C2.01033 10.625 1.66059 10.4801 1.40273 10.2223C1.14487 9.96441 1 9.61467 1 9.25C1 8.88533 1.14487 8.53559 1.40273 8.27773C1.66059 8.01987 2.01033 7.875 2.375 7.875M2.375 10.625V12M2.375 7.875V1M6.5 5.125V12M10.625 10.625C10.9897 10.625 11.3394 10.4801 11.5973 10.2223C11.8551 9.96441 12 9.61467 12 9.25C12 8.88533 11.8551 8.53559 11.5973 8.27773C11.3394 8.01987 10.9897 7.875 10.625 7.875M10.625 10.625C10.2603 10.625 9.91059 10.4801 9.65273 10.2223C9.39487 9.96441 9.25 9.61467 9.25 9.25C9.25 8.88533 9.39487 8.53559 9.65273 8.27773C9.91059 8.01987 10.2603 7.875 10.625 7.875M10.625 10.625V12M10.625 7.875V1" stroke="white" stroke-linecap="round" stroke-linejoin="round"/>
</svg>
