<svg width="16" height="15" viewBox="0 0 16 15" fill="none" xmlns="http://www.w3.org/2000/svg">
<path d="M8.5 3.375V2M8.5 3.375C8.13533 3.375 7.78559 3.51987 7.52773 3.77773C7.26987 4.03559 7.125 4.38533 7.125 4.75C7.125 5.11467 7.26987 5.46441 7.52773 5.72227C7.78559 5.98013 8.13533 6.125 8.5 6.125M8.5 3.375C8.86467 3.375 9.21441 3.51987 9.47227 3.77773C9.73013 4.03559 9.875 4.38533 9.875 4.75C9.875 5.11467 9.73013 5.46441 9.47227 5.72227C9.21441 5.98013 8.86467 6.125 8.5 6.125M4.375 11.625C4.73967 11.625 5.08941 11.4801 5.34727 11.2223C5.60513 10.9644 5.75 10.6147 5.75 10.25C5.75 9.88533 5.60513 9.53559 5.34727 9.27773C5.08941 9.01987 4.73967 8.875 4.375 8.875M4.375 11.625C4.01033 11.625 3.66059 11.4801 3.40273 11.2223C3.14487 10.9644 3 10.6147 3 10.25C3 9.88533 3.14487 9.53559 3.40273 9.27773C3.66059 9.01987 4.01033 8.875 4.375 8.875M4.375 11.625V13M4.375 8.875V2M8.5 6.125V13M12.625 11.625C12.9897 11.625 13.3394 11.4801 13.5973 11.2223C13.8551 10.9644 14 10.6147 14 10.25C14 9.88533 13.8551 9.53559 13.5973 9.27773C13.3394 9.01987 12.9897 8.875 12.625 8.875M12.625 11.625C12.2603 11.625 11.9106 11.4801 11.6527 11.2223C11.3949 10.9644 11.25 10.6147 11.25 10.25C11.25 9.88533 11.3949 9.53559 11.6527 9.27773C11.9106 9.01987 12.2603 8.875 12.625 8.875M12.625 11.625V13M12.625 8.875V2" stroke="white" stroke-linecap="round" stroke-linejoin="round"/>
</svg>