<svg width="24" height="19" viewBox="0 0 24 19" fill="none" xmlns="http://www.w3.org/2000/svg">
<path d="M10.5954 4.19029H5.95136C5.45869 4.19029 4.9862 4.36274 4.63783 4.66971C4.28946 4.97668 4.09375 5.39302 4.09375 5.82714V14.8298C4.09375 15.2639 4.28946 15.6803 4.63783 15.9872C4.9862 16.2942 5.45869 16.4667 5.95136 16.4667H16.1682C16.6609 16.4667 17.1334 16.2942 17.4817 15.9872C17.8301 15.6803 18.0258 15.2639 18.0258 14.8298V10.7377M16.7125 3.03304C16.8838 2.8767 17.0888 2.752 17.3155 2.66622C17.5421 2.58043 17.7858 2.53528 18.0325 2.53339C18.2792 2.5315 18.5238 2.57291 18.7521 2.65522C18.9803 2.73752 19.1878 2.85906 19.3622 3.01275C19.5366 3.16644 19.6745 3.34919 19.7679 3.55036C19.8613 3.75152 19.9083 3.96706 19.9062 4.1844C19.904 4.40174 19.8528 4.61653 19.7554 4.81623C19.6581 5.01593 19.5166 5.19655 19.3391 5.34754L11.3644 12.3745H8.73777V10.06L16.7125 3.03304Z" stroke="#40A0D0" stroke-width="1.5" stroke-linecap="round" stroke-linejoin="round"/>
</svg>