<svg width="25" height="24" viewBox="0 0 25 24" fill="none" xmlns="http://www.w3.org/2000/svg">
<path d="M5.03571 6.57249H3.67857C3.4986 6.57249 3.32601 6.50101 3.19875 6.37376C3.07149 6.24651 3 6.07393 3 5.89397C3 5.71402 3.07149 5.54143 3.19875 5.41418C3.32601 5.28694 3.4986 5.21545 3.67857 5.21545H9.10714V3.17852C9.10714 2.99857 9.17864 2.82598 9.30589 2.69873C9.43315 2.57149 9.60575 2.5 9.78571 2.5H15.2143C15.3943 2.5 15.5669 2.57149 15.6941 2.69873C15.8214 2.82598 15.8929 2.99857 15.8929 3.17852V5.21545H21.3214C21.5014 5.21545 21.674 5.28694 21.8013 5.41418C21.9285 5.54143 22 5.71402 22 5.89397C22 6.07393 21.9285 6.24651 21.8013 6.37376C21.674 6.50101 21.5014 6.57249 21.3214 6.57249H19.9643V20.8215C19.9643 21.0014 19.8928 21.174 19.7655 21.3013C19.6383 21.4285 19.4657 21.5 19.2857 21.5H5.71429C5.53432 21.5 5.36172 21.4285 5.23446 21.3013C5.10721 21.174 5.03571 21.0014 5.03571 20.8215V6.57249ZM14.5357 5.21545V3.8584H10.4643V5.21545H14.5357ZM6.39286 20.143H18.6071V6.57249H6.39286V20.143ZM10.4643 17.4289C10.2843 17.4289 10.1117 17.3574 9.98446 17.2301C9.85721 17.1029 9.78571 16.9303 9.78571 16.7503V9.96511C9.78571 9.78515 9.85721 9.61257 9.98446 9.48532C10.1117 9.35807 10.2843 9.28659 10.4643 9.28659C10.6443 9.28659 10.8169 9.35807 10.9441 9.48532C11.0714 9.61257 11.1429 9.78515 11.1429 9.96511V16.7503C11.1429 16.9303 11.0714 17.1029 10.9441 17.2301C10.8169 17.3574 10.6443 17.4289 10.4643 17.4289ZM14.5357 17.4289C14.3557 17.4289 14.1831 17.3574 14.0559 17.2301C13.9286 17.1029 13.8571 16.9303 13.8571 16.7503V9.96511C13.8571 9.78515 13.9286 9.61257 14.0559 9.48532C14.1831 9.35807 14.3557 9.28659 14.5357 9.28659C14.7157 9.28659 14.8883 9.35807 15.0155 9.48532C15.1428 9.61257 15.2143 9.78515 15.2143 9.96511V16.7503C15.2143 16.9303 15.1428 17.1029 15.0155 17.2301C14.8883 17.3574 14.7157 17.4289 14.5357 17.4289Z" fill="#898989"/>
</svg>