<svg width="24" height="24" viewBox="0 0 24 24" fill="none" xmlns="http://www.w3.org/2000/svg">
<path d="M6.28818 17.3906C6.33311 17.3906 6.37803 17.3861 6.42295 17.3794L10.2009 16.7168C10.2458 16.7078 10.2885 16.6876 10.3199 16.6539L19.8411 7.13271C19.8619 7.11194 19.8785 7.08725 19.8897 7.06008C19.901 7.03291 19.9068 7.00378 19.9068 6.97437C19.9068 6.94495 19.901 6.91582 19.8897 6.88865C19.8785 6.86148 19.8619 6.8368 19.8411 6.81602L16.1081 3.08076C16.0654 3.03809 16.0093 3.01562 15.9486 3.01562C15.888 3.01562 15.8318 3.03809 15.7892 3.08076L6.26797 12.602C6.23428 12.6356 6.21406 12.6761 6.20508 12.721L5.54248 16.4989C5.52063 16.6193 5.52844 16.7431 5.56523 16.8597C5.60202 16.9763 5.66668 17.0823 5.75361 17.1683C5.90186 17.312 6.08828 17.3906 6.28818 17.3906V17.3906ZM7.80205 13.4734L15.9486 5.3291L17.595 6.97549L9.44844 15.1198L7.45166 15.4725L7.80205 13.4734V13.4734ZM20.2656 19.2773H3.73438C3.33682 19.2773 3.01562 19.5985 3.01562 19.9961V20.8047C3.01562 20.9035 3.09648 20.9844 3.19531 20.9844H20.8047C20.9035 20.9844 20.9844 20.9035 20.9844 20.8047V19.9961C20.9844 19.5985 20.6632 19.2773 20.2656 19.2773Z" fill="#898989"/>
</svg>