<svg width="13" height="17" viewBox="0 0 13 17" fill="none" xmlns="http://www.w3.org/2000/svg">
<path d="M10.2857 0.5H2.28571C1.67971 0.500662 1.09871 0.74169 0.670201 1.1702C0.24169 1.59871 0.000661734 2.17971 0 2.78571V14.2143C0.000661734 14.8203 0.24169 15.4013 0.670201 15.8298C1.09871 16.2583 1.67971 16.4993 2.28571 16.5H10.2857C10.8917 16.4993 11.4727 16.2583 11.9012 15.8298C12.3297 15.4013 12.5708 14.8203 12.5714 14.2143V2.78571C12.5708 2.17971 12.3297 1.59871 11.9012 1.1702C11.4727 0.74169 10.8917 0.500662 10.2857 0.5ZM6.28571 10.2143H3.42857C3.27702 10.2143 3.13167 10.1541 3.02451 10.0469C2.91735 9.93976 2.85714 9.79441 2.85714 9.64286C2.85714 9.49131 2.91735 9.34596 3.02451 9.2388C3.13167 9.13163 3.27702 9.07143 3.42857 9.07143H6.28571C6.43727 9.07143 6.58261 9.13163 6.68978 9.2388C6.79694 9.34596 6.85714 9.49131 6.85714 9.64286C6.85714 9.79441 6.79694 9.93976 6.68978 10.0469C6.58261 10.1541 6.43727 10.2143 6.28571 10.2143ZM9.14286 7.35714H3.42857C3.27702 7.35714 3.13167 7.29694 3.02451 7.18978C2.91735 7.08261 2.85714 6.93727 2.85714 6.78571C2.85714 6.63416 2.91735 6.48882 3.02451 6.38165C3.13167 6.27449 3.27702 6.21429 3.42857 6.21429H9.14286C9.29441 6.21429 9.43975 6.27449 9.54692 6.38165C9.65408 6.48882 9.71428 6.63416 9.71428 6.78571C9.71428 6.93727 9.65408 7.08261 9.54692 7.18978C9.43975 7.29694 9.29441 7.35714 9.14286 7.35714ZM9.14286 4.5H3.42857C3.27702 4.5 3.13167 4.4398 3.02451 4.33263C2.91735 4.22547 2.85714 4.08012 2.85714 3.92857C2.85714 3.77702 2.91735 3.63167 3.02451 3.52451C3.13167 3.41735 3.27702 3.35714 3.42857 3.35714H9.14286C9.29441 3.35714 9.43975 3.41735 9.54692 3.52451C9.65408 3.63167 9.71428 3.77702 9.71428 3.92857C9.71428 4.08012 9.65408 4.22547 9.54692 4.33263C9.43975 4.4398 9.29441 4.5 9.14286 4.5Z" fill="#40A0D0"/>
</svg>
