<svg width="19" height="18" viewBox="0 0 19 18" fill="none" xmlns="http://www.w3.org/2000/svg">
<path d="M17.7656 0.015625H1.23438C0.836816 0.015625 0.515625 0.336816 0.515625 0.734375V17.2656C0.515625 17.6632 0.836816 17.9844 1.23438 17.9844H17.7656C18.1632 17.9844 18.4844 17.6632 18.4844 17.2656V0.734375C18.4844 0.336816 18.1632 0.015625 17.7656 0.015625ZM15.6902 5.26025H14.255C13.1297 5.26025 12.9118 5.79482 12.9118 6.58096V8.3127H15.5981L15.2478 11.0237H12.9118V17.9844H10.1109V11.026H7.76826V8.3127H10.1109V6.31367C10.1109 3.99346 11.5282 2.72891 13.5991 2.72891C14.5919 2.72891 15.4432 2.80303 15.6925 2.83672V5.26025H15.6902Z" fill="white"/>
</svg>
