<svg width="16" height="17" viewBox="0 0 16 17" fill="none" xmlns="http://www.w3.org/2000/svg">
<path d="M0.888889 9.38889H6.22222C6.45797 9.38889 6.68406 9.29524 6.85076 9.12854C7.01746 8.96184 7.11111 8.73575 7.11111 8.5V1.38889C7.11111 1.15314 7.01746 0.927048 6.85076 0.760349C6.68406 0.59365 6.45797 0.5 6.22222 0.5H0.888889C0.653141 0.5 0.427048 0.59365 0.260349 0.760349C0.0936505 0.927048 0 1.15314 0 1.38889V8.5C0 8.73575 0.0936505 8.96184 0.260349 9.12854C0.427048 9.29524 0.653141 9.38889 0.888889 9.38889ZM0 15.6111C0 15.8469 0.0936505 16.073 0.260349 16.2397C0.427048 16.4064 0.653141 16.5 0.888889 16.5H6.22222C6.45797 16.5 6.68406 16.4064 6.85076 16.2397C7.01746 16.073 7.11111 15.8469 7.11111 15.6111V12.0556C7.11111 11.8198 7.01746 11.5937 6.85076 11.427C6.68406 11.2603 6.45797 11.1667 6.22222 11.1667H0.888889C0.653141 11.1667 0.427048 11.2603 0.260349 11.427C0.0936505 11.5937 0 11.8198 0 12.0556V15.6111ZM8.88889 15.6111C8.88889 15.8469 8.98254 16.073 9.14924 16.2397C9.31594 16.4064 9.54203 16.5 9.77778 16.5H15.1111C15.3469 16.5 15.573 16.4064 15.7397 16.2397C15.9064 16.073 16 15.8469 16 15.6111V9.38889C16 9.15314 15.9064 8.92705 15.7397 8.76035C15.573 8.59365 15.3469 8.5 15.1111 8.5H9.77778C9.54203 8.5 9.31594 8.59365 9.14924 8.76035C8.98254 8.92705 8.88889 9.15314 8.88889 9.38889V15.6111ZM9.77778 6.72222H15.1111C15.3469 6.72222 15.573 6.62857 15.7397 6.46187C15.9064 6.29517 16 6.06908 16 5.83333V1.38889C16 1.15314 15.9064 0.927048 15.7397 0.760349C15.573 0.59365 15.3469 0.5 15.1111 0.5H9.77778C9.54203 0.5 9.31594 0.59365 9.14924 0.760349C8.98254 0.927048 8.88889 1.15314 8.88889 1.38889V5.83333C8.88889 6.06908 8.98254 6.29517 9.14924 6.46187C9.31594 6.62857 9.54203 6.72222 9.77778 6.72222Z" fill="#40A0D0"/>
</svg>
