<svg width="14" height="18" viewBox="0 0 14 18" fill="none" xmlns="http://www.w3.org/2000/svg">
<path d="M7.00781 0.25C5.18508 0.252068 3.4376 0.97706 2.14874 2.26592C0.859873 3.55479 0.13488 5.30227 0.132812 7.125C0.132812 13.0078 6.38281 17.4531 6.64844 17.6406C6.75489 17.7115 6.87992 17.7493 7.00781 17.7493C7.1357 17.7493 7.26074 17.7115 7.36719 17.6406C7.63281 17.4531 13.8828 13.0078 13.8828 7.125C13.8807 5.30227 13.1558 3.55479 11.8669 2.26592C10.578 0.97706 8.83054 0.252068 7.00781 0.25ZM7.00781 4.625C7.50227 4.625 7.98562 4.77162 8.39674 5.04633C8.80786 5.32103 9.12829 5.71148 9.31751 6.16829C9.50673 6.62511 9.55624 7.12777 9.45977 7.61273C9.36331 8.09768 9.12521 8.54313 8.77558 8.89277C8.42595 9.2424 7.98049 9.4805 7.49554 9.57696C7.01059 9.67343 6.50792 9.62392 6.0511 9.4347C5.59429 9.24548 5.20384 8.92505 4.92914 8.51392C4.65444 8.1028 4.50781 7.61945 4.50781 7.125C4.50781 6.46196 4.7712 5.82607 5.24005 5.35723C5.70889 4.88839 6.34477 4.625 7.00781 4.625Z" fill="#40A0D0"/>
</svg>
