<svg width="26" height="26" viewBox="0 0 26 26" fill="none" xmlns="http://www.w3.org/2000/svg">
<path d="M13 8.125C12.569 8.125 12.1557 7.9538 11.851 7.64905C11.5462 7.3443 11.375 6.93098 11.375 6.5C11.375 6.06902 11.5462 5.6557 11.851 5.35095C12.1557 5.0462 12.569 4.875 13 4.875C13.431 4.875 13.8443 5.0462 14.149 5.35095C14.4538 5.6557 14.625 6.06902 14.625 6.5C14.625 6.93098 14.4538 7.3443 14.149 7.64905C13.8443 7.9538 13.431 8.125 13 8.125ZM13 14.625C12.569 14.625 12.1557 14.4538 11.851 14.149C11.5462 13.8443 11.375 13.431 11.375 13C11.375 12.569 11.5462 12.1557 11.851 11.851C12.1557 11.5462 12.569 11.375 13 11.375C13.431 11.375 13.8443 11.5462 14.149 11.851C14.4538 12.1557 14.625 12.569 14.625 13C14.625 13.431 14.4538 13.8443 14.149 14.149C13.8443 14.4538 13.431 14.625 13 14.625ZM11.375 19.5C11.375 19.931 11.5462 20.3443 11.851 20.6491C12.1557 20.9538 12.569 21.125 13 21.125C13.431 21.125 13.8443 20.9538 14.149 20.6491C14.4538 20.3443 14.625 19.931 14.625 19.5C14.625 19.069 14.4538 18.6557 14.149 18.351C13.8443 18.0462 13.431 17.875 13 17.875C12.569 17.875 12.1557 18.0462 11.851 18.351C11.5462 18.6557 11.375 19.069 11.375 19.5Z" fill="black"/>
</svg>
