<svg width="9" height="14" viewBox="0 0 9 14" fill="none" xmlns="http://www.w3.org/2000/svg">
<path d="M8.36296 0.387497C8.47884 0.503139 8.57077 0.6405 8.6335 0.791717C8.69623 0.942933 8.72852 1.10504 8.72852 1.26875C8.72852 1.43246 8.69623 1.59456 8.6335 1.74578C8.57077 1.89699 8.47884 2.03435 8.36296 2.15L3.51296 7L8.36296 11.85C8.59668 12.0837 8.72799 12.4007 8.72799 12.7312C8.72799 13.0618 8.59668 13.3788 8.36296 13.6125C8.12924 13.8462 7.81224 13.9775 7.48171 13.9775C7.15118 13.9775 6.83418 13.8462 6.60046 13.6125L0.862961 7.875C0.747082 7.75935 0.655147 7.62199 0.59242 7.47078C0.529694 7.31956 0.497407 7.15746 0.497407 6.99375C0.497407 6.83004 0.529694 6.66793 0.59242 6.51672C0.655147 6.3655 0.747082 6.22814 0.862961 6.1125L6.60046 0.374997C7.07546 -0.100003 7.87546 -0.100003 8.36296 0.387497Z" fill="#40A0D0"/>
</svg>
