<svg width="31" height="32" viewBox="0 0 31 32" fill="none" xmlns="http://www.w3.org/2000/svg">
<path d="M15.5 30.019C16.0424 30.0065 16.563 29.8026 16.9696 29.4433C17.3761 29.084 17.6425 28.5925 17.7216 28.0557H13.1922C13.2736 28.607 13.5524 29.1101 13.9769 29.4713C14.4014 29.8324 14.9427 30.0271 15.5 30.019V30.019Z" fill="#66747F"/>
<path d="M28.2875 24.7231L27.9947 24.4648C27.1641 23.7248 26.4371 22.8761 25.8334 21.9418C25.1739 20.6523 24.7787 19.2441 24.6708 17.7998V13.5459C24.6674 13.0292 24.6213 12.5137 24.5331 12.0045C23.0744 11.7047 21.7642 10.9101 20.8243 9.75513C19.8843 8.60017 19.3723 7.15587 19.375 5.66676V5.12426C18.476 4.68181 17.51 4.39086 16.5161 4.26315V3.17815C16.5161 2.87326 16.395 2.58086 16.1794 2.36527C15.9638 2.14968 15.6714 2.02856 15.3665 2.02856C15.0617 2.02856 14.7693 2.14968 14.5537 2.36527C14.3381 2.58086 14.217 2.87326 14.217 3.17815V4.3062C11.9916 4.62012 9.95495 5.72854 8.48301 7.42681C7.01107 9.12509 6.20323 11.2985 6.20863 13.5459V17.7998C6.10078 19.2441 5.70555 20.6523 5.04613 21.9418C4.45272 22.8738 3.7374 23.7223 2.91918 24.4648L2.6264 24.7231V27.1515H28.2875V24.7231Z" fill="#66747F"/>
<path d="M25.8333 9.97219C28.2112 9.97219 30.1389 8.04453 30.1389 5.66664C30.1389 3.28875 28.2112 1.36108 25.8333 1.36108C23.4554 1.36108 21.5278 3.28875 21.5278 5.66664C21.5278 8.04453 23.4554 9.97219 25.8333 9.97219Z" fill="#40A0D0"/>
</svg>
