<svg width="9" height="14" viewBox="0 0 9 14" fill="none" xmlns="http://www.w3.org/2000/svg">
<path d="M0.63704 0.387497C0.52116 0.503139 0.429226 0.6405 0.366499 0.791717C0.303772 0.942933 0.271484 1.10504 0.271484 1.26875C0.271484 1.43246 0.303772 1.59456 0.366499 1.74578C0.429226 1.89699 0.52116 2.03435 0.63704 2.15L5.48704 7L0.63704 11.85C0.403318 12.0837 0.272014 12.4007 0.272014 12.7312C0.272014 13.0618 0.403318 13.3788 0.63704 13.6125C0.870762 13.8462 1.18776 13.9775 1.51829 13.9775C1.84882 13.9775 2.16582 13.8462 2.39954 13.6125L8.13704 7.875C8.25292 7.75935 8.34485 7.62199 8.40758 7.47078C8.47031 7.31956 8.50259 7.15746 8.50259 6.99375C8.50259 6.83004 8.47031 6.66793 8.40758 6.51672C8.34485 6.3655 8.25292 6.22814 8.13704 6.1125L2.39954 0.374997C1.92454 -0.100003 1.12454 -0.100003 0.63704 0.387497Z" fill="#40A0D0"/>
</svg>
